<?xml version="1.0" encoding="UTF-8" standalone="no"?>
<!-- Created with Inkscape (http://www.inkscape.org/) -->

<svg
   xmlns:dc="http://purl.org/dc/elements/1.1/"
   xmlns:cc="http://creativecommons.org/ns#"
   xmlns:rdf="http://www.w3.org/1999/02/22-rdf-syntax-ns#"
   xmlns:svg="http://www.w3.org/2000/svg"
   xmlns="http://www.w3.org/2000/svg"
   version="1.1"
   width="105"
   height="104.99999"
   viewBox="0 0 105 105"
   id="svg2">
  <defs
     id="defs4" />
  <metadata
     id="metadata7">
    <rdf:RDF>
      <cc:Work
         rdf:about="">
        <dc:format>image/svg+xml</dc:format>
        <dc:type
           rdf:resource="http://purl.org/dc/dcmitype/StillImage" />
        <dc:title></dc:title>
      </cc:Work>
    </rdf:RDF>
  </metadata>
  <g
     transform="translate(-94.28827,-70.69394)"
     id="layer2"
     style="display:inline" />
  <path
     d="m 107.71814,71.0411 a 39.320423,37.337879 0 1 1 -78.64085,0 39.320423,37.337879 0 1 1 78.64085,0 z"
     transform="matrix(1.0045397,0,0,1.0578779,-16.208215,-22.652801)"
     id="path2995"
     style="fill:none;stroke:#000000;stroke-width:5.82244968;stroke-miterlimit:4;stroke-opacity:1;stroke-dasharray:none" />
  <rect
     width="11.804774"
     height="4.8047743"
     x="1.597613"
     y="50.09761"
     id="rect3765"
     style="fill:#000000;fill-opacity:1;stroke:#000000;stroke-width:3.19522595;stroke-miterlimit:4;stroke-opacity:1;stroke-dasharray:none" />
  <rect
     width="11.804774"
     height="4.8047738"
     x="91.59761"
     y="-54.902386"
     transform="matrix(0,1,-1,0,0,0)"
     id="rect3767"
     style="fill:#000000;fill-opacity:1;stroke:#000000;stroke-width:3.19522595;stroke-miterlimit:4;stroke-opacity:1;stroke-dasharray:none" />
  <path
     d="m 70.327103,89.435371 a 15.186916,14.602804 0 1 1 -30.373833,0 15.186916,14.602804 0 1 1 30.373833,0 z"
     transform="matrix(1.096111,0,0,1.1399554,-7.939763,-49.452334)"
     id="path3769"
     style="fill:#000000;fill-opacity:1;stroke:#000000;stroke-width:6;stroke-miterlimit:4;stroke-opacity:1;stroke-dasharray:none" />
  <rect
     width="11.804774"
     height="4.8047743"
     x="91.597618"
     y="50.09761"
     id="rect3773"
     style="fill:#000000;fill-opacity:1;stroke:#000000;stroke-width:3.19522595;stroke-miterlimit:4;stroke-opacity:1;stroke-dasharray:none" />
  <rect
     width="11.804774"
     height="4.8047738"
     x="1.597613"
     y="-54.902386"
     transform="matrix(0,1,-1,0,0,0)"
     id="rect3775"
     style="fill:#000000;fill-opacity:1;stroke:#000000;stroke-width:3.19522595;stroke-miterlimit:4;stroke-opacity:1;stroke-dasharray:none" />
</svg>
