<svg xmlns="http://www.w3.org/2000/svg" width="105" height="105" viewBox="0 0 105 105"><path d="M107.718 71.041a39.32 37.338 0 1 1-78.64 0 39.32 37.338 0 1 1 78.64 0z" transform="matrix(1.00454 0 0 1.05788 -16.208 -22.653)" fill="none" stroke="#000" stroke-width="5.822"/><path stroke="#000" stroke-width="3.195" d="M1.598 50.098h11.805v4.805H1.598zM54.902 91.598v11.805h-4.805V91.598z"/><path d="M70.327 89.435a15.187 14.603 0 1 1-30.374 0 15.187 14.603 0 1 1 30.374 0z" transform="matrix(1.09611 0 0 1.13996 -7.94 -49.452)" stroke="#000" stroke-width="6"/><path stroke="#000" stroke-width="3.195" d="M91.598 50.098h11.805v4.805H91.598zM54.902 1.598v11.805h-4.805V1.598z"/></svg>